<svg xmlns="http://www.w3.org/2000/svg" xmlns:xlink="http://www.w3.org/1999/xlink" version="1.1" width="256" height="256" viewBox="0 0 256 256" xml:space="preserve">

<defs>
</defs>
<g style="stroke: none; stroke-width: 0; stroke-dasharray: none; stroke-linecap: butt; stroke-linejoin: miter; stroke-miterlimit: 10; fill: none; fill-rule: nonzero; opacity: 1;" transform="translate(1.4065934065934016 1.4065934065934016) scale(2.81 2.81)" >
	<path d="M 18.063 38 H 5.098 C 2.283 38 0 40.283 0 43.098 v 34.803 C 0 80.717 2.283 83 5.098 83 h 12.965 c 2.816 0 5.098 -2.283 5.098 -5.098 V 43.098 C 23.161 40.283 20.879 38 18.063 38 z M 15.411 40.402 c 0.33 0 0.598 0.269 0.598 0.598 s -0.268 0.598 -0.598 0.598 S 14.813 41.33 14.813 41 S 15.081 40.402 15.411 40.402 z M 7.521 40.5 h 4.733 c 0.276 0 0.5 0.224 0.5 0.5 s -0.224 0.5 -0.5 0.5 H 7.521 c -0.276 0 -0.5 -0.224 -0.5 -0.5 S 7.244 40.5 7.521 40.5 z M 20.161 77.902 c 0 1.157 -0.941 2.098 -2.098 2.098 H 5.098 C 3.941 80 3 79.059 3 77.902 V 43.098 C 3 41.941 3.941 41 5.098 41 h 0.099 c 0.139 1.247 0.996 2.219 2.035 2.219 h 8.698 c 1.039 0 1.896 -0.972 2.035 -2.219 h 0.099 c 1.157 0 2.098 0.941 2.098 2.098 V 77.902 z" style="stroke: none; stroke-width: 1; stroke-dasharray: none; stroke-linecap: butt; stroke-linejoin: miter; stroke-miterlimit: 10; fill: rgb(0,0,0); fill-rule: nonzero; opacity: 1;" transform=" matrix(1 0 0 1 0 0) " stroke-linecap="round" />
	<path d="M 82.018 15.199 H 7.982 c -1.839 0 -3.33 1.491 -3.33 3.33 v 15.494 C 4.801 34.015 4.948 34 5.098 34 h 2.615 V 18.529 c 0 -0.148 0.12 -0.268 0.268 -0.268 h 74.036 c 0.148 0 0.268 0.12 0.268 0.268 v 45.852 H 27.162 v 3.062 h 58.186 V 18.529 C 85.348 16.69 83.857 15.199 82.018 15.199 z" style="stroke: none; stroke-width: 1; stroke-dasharray: none; stroke-linecap: butt; stroke-linejoin: miter; stroke-miterlimit: 10; fill: rgb(0,0,0); fill-rule: nonzero; opacity: 1;" transform=" matrix(1 0 0 1 0 0) " stroke-linecap="round" />
	<path d="M 27.162 71.236 v 5.025 h 57.44 c 2.785 0 5.049 -2.249 5.087 -5.025 H 27.162 z" style="stroke: none; stroke-width: 1; stroke-dasharray: none; stroke-linecap: butt; stroke-linejoin: miter; stroke-miterlimit: 10; fill: rgb(0,0,0); fill-rule: nonzero; opacity: 1;" transform=" matrix(1 0 0 1 0 0) " stroke-linecap="round" />
</g>
</svg>